<svg width="714" height="67" fill="none" xmlns="http://www.w3.org/2000/svg"><path opacity=".4" d="M7.156 8.68c0-.604-.221-1.084-.664-1.438-.437-.36-1.054-.539-1.851-.539-.667 0-1.227.185-1.68.555-.448.364-.672.818-.672 1.36H.79c0-.605.164-1.147.492-1.626.334-.479.797-.851 1.39-1.117a4.688 4.688 0 011.97-.406c1.27 0 2.257.286 2.96.86.704.567 1.055 1.359 1.055 2.374 0 .526-.161 1.005-.484 1.438-.323.432-.774.773-1.352 1.023 1.339.448 2.008 1.336 2.008 2.664 0 1.021-.38 1.83-1.14 2.43-.76.599-1.777.898-3.047.898-.756 0-1.443-.133-2.063-.398-.614-.271-1.094-.654-1.437-1.149-.344-.494-.516-1.083-.516-1.765h1.5c0 .599.237 1.099.71 1.5.475.396 1.076.594 1.806.594.817 0 1.468-.19 1.953-.57.49-.381.734-.884.734-1.509 0-1.333-.825-2.013-2.476-2.039H3.445v-1.234h1.399c.76-.016 1.336-.188 1.726-.516.39-.328.586-.791.586-1.39zM15.813 17c-.084-.167-.152-.463-.204-.89-.671.697-1.474 1.046-2.406 1.046-.833 0-1.518-.234-2.055-.703-.53-.474-.796-1.073-.796-1.797 0-.88.333-1.562 1-2.047.671-.49 1.614-.734 2.828-.734h1.406v-.664c0-.505-.151-.906-.453-1.203-.302-.302-.748-.453-1.336-.453-.516 0-.948.13-1.297.39s-.523.576-.523.946h-1.454c0-.422.149-.829.446-1.22.302-.395.708-.707 1.219-.937a4.127 4.127 0 011.695-.343c.974 0 1.737.244 2.289.734.552.484.838 1.154.86 2.008v3.89c0 .777.098 1.394.296 1.852V17h-1.515zm-2.399-1.102a2.54 2.54 0 001.29-.351c.405-.235.7-.54.882-.914v-1.735h-1.133c-1.77 0-2.656.519-2.656 1.555 0 .453.15.807.453 1.063.302.255.69.382 1.164.382zm13.024-3.03c0 1.286-.295 2.322-.883 3.109-.589.786-1.386 1.18-2.39 1.18-1.027 0-1.834-.326-2.423-.977v4.07h-1.445V8.547h1.32l.07.937c.589-.729 1.407-1.093 2.454-1.093 1.015 0 1.817.382 2.406 1.148.594.766.89 1.83.89 3.195v.133zm-1.446-.165c0-.953-.203-1.706-.61-2.258-.405-.552-.963-.828-1.671-.828-.875 0-1.531.388-1.969 1.164v4.04c.432.77 1.094 1.156 1.985 1.156.692 0 1.242-.274 1.648-.82.412-.553.617-1.37.617-2.454zM33.5 17c-.083-.167-.151-.463-.203-.89-.672.697-1.474 1.046-2.406 1.046-.834 0-1.519-.234-2.055-.703-.531-.474-.797-1.073-.797-1.797 0-.88.333-1.562 1-2.047.672-.49 1.615-.734 2.828-.734h1.406v-.664c0-.505-.15-.906-.453-1.203-.302-.302-.747-.453-1.336-.453-.515 0-.948.13-1.297.39s-.523.576-.523.946h-1.453c0-.422.148-.829.445-1.22.302-.395.709-.707 1.219-.937a4.127 4.127 0 011.695-.343c.974 0 1.737.244 2.29.734.551.484.838 1.154.859 2.008v3.89c0 .777.099 1.394.297 1.852V17H33.5zm-2.398-1.102a2.54 2.54 0 001.289-.351c.406-.235.7-.54.882-.914v-1.735h-1.132c-1.771 0-2.657.519-2.657 1.555 0 .453.151.807.453 1.063.303.255.69.382 1.165.382zm9.593-6.867c1.063 0 1.912.357 2.547 1.07.64.709.961 1.644.961 2.805v.133c0 .797-.154 1.51-.46 2.14a3.438 3.438 0 01-1.329 1.462c-.573.343-1.234.515-1.984.515-1.136 0-2.05-.377-2.742-1.133-.693-.76-1.04-1.778-1.04-3.054v-.703c0-1.776.329-3.188.985-4.235.661-1.047 1.635-1.685 2.922-1.914.729-.13 1.221-.289 1.476-.476a.907.907 0 00.383-.774h1.188c0 .651-.149 1.159-.446 1.524-.291.364-.76.622-1.406.773l-1.078.242c-.86.203-1.505.547-1.938 1.032-.427.479-.705 1.12-.836 1.921.766-.885 1.698-1.328 2.797-1.328zm-.28 1.188c-.71 0-1.272.24-1.688.719-.417.473-.625 1.132-.625 1.976v.125c0 .906.208 1.625.625 2.156.421.526.99.79 1.703.79.718 0 1.286-.266 1.703-.797.416-.532.625-1.308.625-2.329 0-.796-.211-1.434-.633-1.914-.417-.484-.987-.726-1.71-.726zm5.03 2.476c0-.828.162-1.573.485-2.234.328-.662.78-1.172 1.36-1.531.582-.36 1.246-.54 1.991-.54 1.151 0 2.081.4 2.79 1.196.713.797 1.07 1.857 1.07 3.18v.101c0 .823-.16 1.563-.477 2.219a3.56 3.56 0 01-1.352 1.523c-.583.365-1.255.547-2.015.547-1.146 0-2.076-.398-2.79-1.195-.707-.797-1.062-1.852-1.062-3.164v-.102zm1.453.172c0 .938.217 1.69.649 2.258.437.568 1.02.852 1.75.852.734 0 1.318-.287 1.75-.86.432-.578.648-1.385.648-2.422 0-.927-.221-1.677-.664-2.25-.437-.578-1.02-.867-1.75-.867-.713 0-1.289.284-1.726.852-.438.567-.657 1.38-.657 2.437zM61.062 9.72h-2.835V17H56.78V9.719H54V8.547h7.063v1.172zm6.5 7.281c-.083-.167-.15-.463-.203-.89-.671.697-1.474 1.046-2.406 1.046-.833 0-1.518-.234-2.055-.703-.53-.474-.796-1.073-.796-1.797 0-.88.333-1.562 1-2.047.671-.49 1.614-.734 2.828-.734h1.406v-.664c0-.505-.151-.906-.453-1.203-.302-.302-.748-.453-1.336-.453-.516 0-.948.13-1.297.39s-.523.576-.523.946h-1.454c0-.422.149-.829.446-1.22.302-.395.708-.707 1.218-.937a4.127 4.127 0 011.696-.343c.974 0 1.737.244 2.289.734.552.484.838 1.154.86 2.008v3.89c0 .777.098 1.394.296 1.852V17h-1.516zm-2.398-1.102a2.54 2.54 0 001.29-.351c.405-.235.7-.54.882-.914v-1.735h-1.133c-1.77 0-2.656.519-2.656 1.555 0 .453.15.807.453 1.063.302.255.69.382 1.164.382zM77.954 17h-1.446v-3.61h-3.883V17h-1.453V8.547h1.453v3.664h3.883V8.547h1.445V17zm1.944-4.305c0-.828.162-1.573.485-2.234.328-.662.781-1.172 1.36-1.531.583-.36 1.247-.54 1.991-.54 1.151 0 2.081.4 2.79 1.196.713.797 1.07 1.857 1.07 3.18v.101c0 .823-.16 1.563-.477 2.219a3.56 3.56 0 01-1.351 1.523c-.584.365-1.256.547-2.016.547-1.146 0-2.076-.398-2.79-1.195-.707-.797-1.062-1.852-1.062-3.164v-.102zm1.454.172c0 .938.216 1.69.648 2.258.438.568 1.02.852 1.75.852.734 0 1.318-.287 1.75-.86.432-.578.648-1.385.648-2.422 0-.927-.22-1.677-.664-2.25-.437-.578-1.02-.867-1.75-.867-.713 0-1.289.284-1.726.852-.438.567-.656 1.38-.656 2.437zm14.789 2.016l1.968-6.336h1.547l-3.398 9.758c-.526 1.406-1.362 2.11-2.508 2.11l-.273-.024-.54-.102v-1.172l.391.031c.49 0 .87-.099 1.14-.296.277-.198.503-.56.68-1.086l.32-.86-3.015-8.36h1.578l2.11 6.337zM107.336 17h-1.453v-3.063a7.67 7.67 0 01-1.953.25c-1.058 0-1.865-.27-2.422-.812-.552-.542-.834-1.313-.844-2.313V8.54h1.445v2.57c.026 1.26.633 1.891 1.821 1.891a7.67 7.67 0 001.953-.25V8.547h1.453V17zm5.828.156c-1.146 0-2.078-.375-2.797-1.125-.719-.755-1.078-1.763-1.078-3.023v-.266c0-.838.159-1.586.477-2.242.323-.661.77-1.177 1.343-1.547a3.382 3.382 0 011.875-.562c1.099 0 1.954.362 2.563 1.086.609.723.914 1.76.914 3.109v.601h-5.727c.021.834.263 1.508.727 2.024.469.51 1.062.766 1.781.766.511 0 .943-.105 1.297-.313.354-.208.664-.484.93-.828l.883.687c-.709 1.089-1.771 1.633-3.188 1.633zm-.18-7.578a1.92 1.92 0 00-1.468.64c-.396.423-.641 1.016-.735 1.782h4.235v-.11c-.042-.734-.24-1.302-.594-1.703-.354-.406-.833-.609-1.438-.609zM125.047 17h-1.445v-3.61h-3.883V17h-1.453V8.547h1.453v3.664h3.883V8.547h1.445V17zm7.797-8.453h1.445V17h-1.445v-6.164L128.945 17H127.5V8.547h1.445v6.172l3.899-6.172zm6.398 4.851h-1.054V17h-1.454V8.547h1.454v3.578h.945l2.844-3.578h1.75l-3.344 4.062L144.008 17h-1.836l-2.93-3.602zM150.469 17c-.084-.167-.151-.463-.203-.89-.672.697-1.474 1.046-2.407 1.046-.833 0-1.518-.234-2.054-.703-.532-.474-.797-1.073-.797-1.797 0-.88.333-1.562 1-2.047.672-.49 1.614-.734 2.828-.734h1.406v-.664c0-.505-.151-.906-.453-1.203-.302-.302-.747-.453-1.336-.453-.515 0-.948.13-1.297.39s-.523.576-.523.946h-1.453c0-.422.148-.829.445-1.22.302-.395.708-.707 1.219-.937a4.122 4.122 0 011.695-.343c.974 0 1.737.244 2.289.734.552.484.839 1.154.86 2.008v3.89c0 .777.098 1.394.296 1.852V17h-1.515zm-2.399-1.102a2.54 2.54 0 001.289-.351c.407-.235.701-.54.883-.914v-1.735h-1.133c-1.77 0-2.656.519-2.656 1.555 0 .453.151.807.453 1.063.302.255.69.382 1.164.382zm10.75-.812l2.875-6.54h1.805V17h-1.445v-6.148L159.32 17h-1l-2.789-6.281V17h-1.445V8.547h1.875l2.859 6.539zm12.477-6.54h1.445V17h-1.445v-6.164L167.398 17h-1.445V8.547h1.445v6.172l3.899-6.172zm3.719 7.696c0-.25.073-.458.218-.625.151-.167.375-.25.672-.25.297 0 .521.083.672.25a.88.88 0 01.234.625c0 .24-.078.44-.234.602-.151.161-.375.242-.672.242-.297 0-.521-.08-.672-.242a.868.868 0 01-.218-.602zm.007-6.898c0-.25.073-.459.219-.625.151-.167.375-.25.672-.25.297 0 .521.083.672.25a.88.88 0 01.234.625c0 .24-.078.44-.234.601-.151.162-.375.242-.672.242-.297 0-.521-.08-.672-.242a.864.864 0 01-.219-.601zM8.078 55.148c0 1.693-.289 2.951-.867 3.774-.578.823-1.482 1.234-2.711 1.234-1.214 0-2.112-.4-2.695-1.203-.584-.807-.886-2.01-.907-3.61v-1.929c0-1.672.29-2.914.868-3.727.578-.812 1.484-1.218 2.718-1.218 1.224 0 2.125.393 2.704 1.18.578.78.875 1.989.89 3.624v1.875zm-1.445-1.976c0-1.224-.172-2.115-.516-2.672-.344-.563-.888-.844-1.633-.844-.74 0-1.278.279-1.617.836-.338.558-.513 1.414-.523 2.57v2.313c0 1.23.177 2.138.531 2.727.36.583.901.875 1.625.875.714 0 1.242-.276 1.586-.829.349-.552.531-1.421.547-2.609v-2.367zM638.242 60h-1.453v-9.633l-2.914 1.07v-1.312l4.141-1.555h.226V60zm15.336-4.852c0 1.693-.289 2.951-.867 3.774-.578.823-1.482 1.234-2.711 1.234-1.214 0-2.112-.4-2.695-1.203-.584-.807-.886-2.01-.907-3.61v-1.929c0-1.672.29-2.914.868-3.727.578-.812 1.484-1.218 2.718-1.218 1.224 0 2.125.393 2.704 1.18.578.78.874 1.989.89 3.624v1.875zm-1.445-1.976c0-1.224-.172-2.115-.516-2.672-.344-.563-.888-.844-1.633-.844-.739 0-1.278.279-1.617.836-.338.558-.513 1.414-.523 2.57v2.313c0 1.23.177 2.138.531 2.727.359.583.901.875 1.625.875.714 0 1.242-.276 1.586-.829.349-.552.531-1.421.547-2.609v-2.367zm10.429 1.976c0 1.693-.289 2.951-.867 3.774-.578.823-1.481 1.234-2.711 1.234-1.213 0-2.112-.4-2.695-1.203-.583-.807-.885-2.01-.906-3.61v-1.929c0-1.672.289-2.914.867-3.727.578-.812 1.484-1.218 2.719-1.218 1.224 0 2.125.393 2.703 1.18.578.78.875 1.989.89 3.624v1.875zm-1.445-1.976c0-1.224-.172-2.115-.515-2.672-.344-.563-.888-.844-1.633-.844-.74 0-1.279.279-1.617.836-.339.558-.513 1.414-.524 2.57v2.313c0 1.23.177 2.138.531 2.727.36.583.901.875 1.625.875.714 0 1.243-.276 1.586-.829.349-.552.532-1.421.547-2.609v-2.367zm10.43 1.976c0 1.693-.289 2.951-.867 3.774-.578.823-1.482 1.234-2.711 1.234-1.214 0-2.112-.4-2.696-1.203-.583-.807-.885-2.01-.906-3.61v-1.929c0-1.672.289-2.914.867-3.727.578-.812 1.485-1.218 2.719-1.218 1.224 0 2.125.393 2.703 1.18.578.78.875 1.989.891 3.624v1.875zm-1.445-1.976c0-1.224-.172-2.115-.516-2.672-.344-.563-.888-.844-1.633-.844-.739 0-1.279.279-1.617.836-.339.558-.513 1.414-.524 2.57v2.313c0 1.23.178 2.138.532 2.727.359.583.901.875 1.625.875.713 0 1.242-.276 1.586-.829.349-.552.531-1.421.547-2.609v-2.367zm14.398 1.976c0 1.693-.289 2.951-.867 3.774-.578.823-1.482 1.234-2.711 1.234-1.214 0-2.112-.4-2.695-1.203-.584-.807-.886-2.01-.907-3.61v-1.929c0-1.672.289-2.914.868-3.727.578-.812 1.484-1.218 2.718-1.218 1.224 0 2.125.393 2.703 1.18.579.78.875 1.989.891 3.624v1.875zm-1.445-1.976c0-1.224-.172-2.115-.516-2.672-.344-.563-.888-.844-1.633-.844-.739 0-1.278.279-1.617.836-.338.558-.513 1.414-.523 2.57v2.313c0 1.23.177 2.138.531 2.727.359.583.901.875 1.625.875.713 0 1.242-.276 1.586-.829.349-.552.531-1.421.547-2.609v-2.367zm10.429 1.976c0 1.693-.289 2.951-.867 3.774-.578.823-1.482 1.234-2.711 1.234-1.213 0-2.112-.4-2.695-1.203-.583-.807-.885-2.01-.906-3.61v-1.929c0-1.672.289-2.914.867-3.727.578-.812 1.484-1.218 2.719-1.218 1.224 0 2.125.393 2.703 1.18.578.78.875 1.989.89 3.624v1.875zm-1.445-1.976c0-1.224-.172-2.115-.516-2.672-.343-.563-.888-.844-1.632-.844-.74 0-1.279.279-1.618.836-.338.558-.513 1.414-.523 2.57v2.313c0 1.23.177 2.138.531 2.727.36.583.901.875 1.625.875.714 0 1.242-.276 1.586-.829.349-.552.531-1.421.547-2.609v-2.367zm10.43 1.976c0 1.693-.289 2.951-.867 3.774-.579.823-1.482 1.234-2.711 1.234-1.214 0-2.112-.4-2.696-1.203-.583-.807-.885-2.01-.906-3.61v-1.929c0-1.672.289-2.914.867-3.727.578-.812 1.485-1.218 2.719-1.218 1.224 0 2.125.393 2.703 1.18.578.78.875 1.989.891 3.624v1.875zm-1.446-1.976c0-1.224-.171-2.115-.515-2.672-.344-.563-.888-.844-1.633-.844-.74 0-1.279.279-1.617.836-.339.558-.513 1.414-.524 2.57v2.313c0 1.23.177 2.138.532 2.727.359.583.901.875 1.625.875.713 0 1.242-.276 1.586-.829.349-.552.531-1.421.546-2.609v-2.367zm8.321 4.68h-2.617V60h-1.493v-2.148h-1.617v-1.235h1.617v-1.07h-1.617V54.32h1.617v-5.695h4.196c1.218 0 2.185.31 2.898.93.714.62 1.07 1.458 1.07 2.515 0 1.11-.343 1.966-1.031 2.57-.682.6-1.653.902-2.914.907h-2.726v1.07h2.617v1.235zm-2.617-3.532h2.703c.807 0 1.422-.19 1.843-.57.422-.38.633-.935.633-1.664 0-.661-.218-1.195-.656-1.602-.438-.411-1.029-.62-1.773-.625h-2.75v4.461z" fill="#fff"/><path d="M215.453 13.719h1.289v1.82h-1.289V18h-2.258v-2.46h-4.664l-.101-1.423 4.742-7.492h2.281v7.094zm-4.773 0h2.515V9.703l-.148.258-2.367 3.758zm14.937-.422c0 1.573-.325 2.776-.976 3.61-.651.833-1.605 1.25-2.86 1.25-1.239 0-2.187-.41-2.843-1.227-.657-.818-.993-1.99-1.008-3.516V11.32c0-1.588.328-2.794.984-3.617.662-.823 1.612-1.234 2.852-1.234 1.239 0 2.187.409 2.843 1.226.657.813.993 1.982 1.008 3.508v2.094zM223.359 11c0-.943-.13-1.628-.39-2.055-.255-.432-.657-.648-1.203-.648-.532 0-.925.206-1.18.617-.25.406-.383 1.044-.398 1.914v2.766c0 .927.124 1.617.374 2.07.256.448.662.672 1.219.672.552 0 .951-.216 1.196-.648.244-.433.372-1.094.382-1.985V11zm11.446 2.297c0 1.573-.326 2.776-.977 3.61-.651.833-1.604 1.25-2.859 1.25-1.24 0-2.188-.41-2.844-1.227-.656-.818-.992-1.99-1.008-3.516V11.32c0-1.588.328-2.794.985-3.617.661-.823 1.612-1.234 2.851-1.234 1.24 0 2.188.409 2.844 1.226.656.813.992 1.982 1.008 3.508v2.094zM232.547 11c0-.943-.13-1.628-.391-2.055-.255-.432-.656-.648-1.203-.648-.531 0-.924.206-1.18.617-.25.406-.382 1.044-.398 1.914v2.766c0 .927.125 1.617.375 2.07.255.448.661.672 1.219.672.552 0 .95-.216 1.195-.648.245-.433.372-1.094.383-1.985V11zm15.43 2.297c0 1.573-.326 2.776-.977 3.61-.651.833-1.604 1.25-2.859 1.25-1.24 0-2.188-.41-2.844-1.227-.656-.818-.992-1.99-1.008-3.516V11.32c0-1.588.328-2.794.984-3.617.662-.823 1.612-1.234 2.852-1.234 1.24 0 2.187.409 2.844 1.226.656.813.992 1.982 1.008 3.508v2.094zM245.719 11c0-.943-.13-1.628-.391-2.055-.255-.432-.656-.648-1.203-.648-.531 0-.924.206-1.18.617-.25.406-.383 1.044-.398 1.914v2.766c0 .927.125 1.617.375 2.07.255.448.661.672 1.219.672.552 0 .95-.216 1.195-.648.245-.433.372-1.094.383-1.985V11zm11.445 2.297c0 1.573-.325 2.776-.976 3.61-.652.833-1.605 1.25-2.86 1.25-1.239 0-2.187-.41-2.844-1.227-.656-.818-.992-1.99-1.007-3.516V11.32c0-1.588.328-2.794.984-3.617.661-.823 1.612-1.234 2.851-1.234 1.24 0 2.188.409 2.844 1.226.656.813.992 1.982 1.008 3.508v2.094zM254.906 11c0-.943-.13-1.628-.39-2.055-.256-.432-.657-.648-1.204-.648-.531 0-.924.206-1.179.617-.25.406-.383 1.044-.399 1.914v2.766c0 .927.125 1.617.375 2.07.256.448.662.672 1.219.672.552 0 .951-.216 1.195-.648.245-.433.373-1.094.383-1.985V11zm11.446 2.297c0 1.573-.326 2.776-.977 3.61-.651.833-1.604 1.25-2.859 1.25-1.24 0-2.188-.41-2.844-1.227-.656-.818-.992-1.99-1.008-3.516V11.32c0-1.588.328-2.794.984-3.617.662-.823 1.612-1.234 2.852-1.234 1.24 0 2.188.409 2.844 1.226.656.813.992 1.982 1.008 3.508v2.094zM264.094 11c0-.943-.13-1.628-.391-2.055-.255-.432-.656-.648-1.203-.648-.531 0-.924.206-1.18.617-.25.406-.382 1.044-.398 1.914v2.766c0 .927.125 1.617.375 2.07.255.448.661.672 1.219.672.552 0 .95-.216 1.195-.648.245-.433.372-1.094.383-1.985V11zm9.828 5.484h-2.484V18h-2.344v-1.516h-1.586v-1.898h1.586v-.594h-1.586v-1.898h1.586V6.625h4.422c.854 0 1.604.154 2.25.46a3.477 3.477 0 011.5 1.321c.359.568.539 1.216.539 1.946 0 1.125-.383 2.013-1.149 2.664-.76.65-1.82.976-3.179.976h-2.039v.594h2.484v1.898zm-2.484-4.39h2.023c1.312 0 1.969-.576 1.969-1.727 0-.547-.167-.987-.5-1.32-.334-.339-.795-.51-1.383-.516h-2.109v3.563zM0 32h714v6H0z" fill="#fff"/><path fill="url(#paint0_linear)" d="M0 32h440v6H0z"/><defs><linearGradient id="paint0_linear" x1="53.373" y1="32" x2="63.566" y2="94.506" gradientUnits="userSpaceOnUse"><stop stop-color="#DF5950"/><stop offset="1" stop-color="#451046"/></linearGradient></defs></svg>