<svg width="714" height="67" viewBox="0 0 714 67" fill="none" xmlns="http://www.w3.org/2000/svg">
<path opacity="0.4" d="M7.15625 8.67969C7.15625 8.07552 6.9349 7.59635 6.49219 7.24219C6.05469 6.88281 5.4375 6.70312 4.64062 6.70312C3.97396 6.70312 3.41406 6.88802 2.96094 7.25781C2.51302 7.6224 2.28906 8.07552 2.28906 8.61719H0.789062C0.789062 8.01302 0.953125 7.47135 1.28125 6.99219C1.61458 6.51302 2.07812 6.14062 2.67188 5.875C3.26562 5.60417 3.92188 5.46875 4.64062 5.46875C5.91146 5.46875 6.89844 5.75521 7.60156 6.32812C8.30469 6.89583 8.65625 7.6875 8.65625 8.70312C8.65625 9.22917 8.49479 9.70833 8.17188 10.1406C7.84896 10.5729 7.39844 10.9141 6.82031 11.1641C8.15885 11.612 8.82812 12.5 8.82812 13.8281C8.82812 14.849 8.44792 15.6589 7.6875 16.2578C6.92708 16.8568 5.91146 17.1562 4.64062 17.1562C3.88542 17.1562 3.19792 17.0234 2.57812 16.7578C1.96354 16.487 1.48438 16.1042 1.14062 15.6094C0.796875 15.1146 0.625 14.526 0.625 13.8438H2.125C2.125 14.4427 2.36198 14.9427 2.83594 15.3438C3.3099 15.7396 3.91146 15.9375 4.64062 15.9375C5.45833 15.9375 6.10938 15.7474 6.59375 15.3672C7.08333 14.987 7.32812 14.4844 7.32812 13.8594C7.32812 12.526 6.5026 11.8464 4.85156 11.8203H3.44531V10.5859H4.84375C5.60417 10.5703 6.17969 10.3984 6.57031 10.0703C6.96094 9.74219 7.15625 9.27865 7.15625 8.67969ZM15.8125 17C15.7292 16.8333 15.6615 16.5365 15.6094 16.1094C14.9375 16.8073 14.1354 17.1562 13.2031 17.1562C12.3698 17.1562 11.6849 16.9219 11.1484 16.4531C10.6172 15.9792 10.3516 15.3802 10.3516 14.6562C10.3516 13.776 10.6849 13.0938 11.3516 12.6094C12.0234 12.1198 12.9661 11.875 14.1797 11.875H15.5859V11.2109C15.5859 10.7057 15.4349 10.3047 15.1328 10.0078C14.8307 9.70573 14.3854 9.55469 13.7969 9.55469C13.2812 9.55469 12.849 9.6849 12.5 9.94531C12.151 10.2057 11.9766 10.5208 11.9766 10.8906H10.5234C10.5234 10.4688 10.6719 10.0625 10.9688 9.67188C11.2708 9.27604 11.6771 8.96354 12.1875 8.73438C12.7031 8.50521 13.2682 8.39062 13.8828 8.39062C14.8568 8.39062 15.6198 8.63542 16.1719 9.125C16.724 9.60938 17.0104 10.2786 17.0312 11.1328V15.0234C17.0312 15.7995 17.1302 16.4167 17.3281 16.875V17H15.8125ZM13.4141 15.8984C13.8672 15.8984 14.2969 15.7812 14.7031 15.5469C15.1094 15.3125 15.4036 15.0078 15.5859 14.6328V12.8984H14.4531C12.6823 12.8984 11.7969 13.4167 11.7969 14.4531C11.7969 14.9062 11.9479 15.2604 12.25 15.5156C12.5521 15.7708 12.9401 15.8984 13.4141 15.8984ZM26.4375 12.8672C26.4375 14.1536 26.1432 15.1901 25.5547 15.9766C24.9661 16.763 24.1693 17.1562 23.1641 17.1562C22.138 17.1562 21.3307 16.8307 20.7422 16.1797V20.25H19.2969V8.54688H20.6172L20.6875 9.48438C21.276 8.75521 22.0938 8.39062 23.1406 8.39062C24.1562 8.39062 24.9583 8.77344 25.5469 9.53906C26.1406 10.3047 26.4375 11.3698 26.4375 12.7344V12.8672ZM24.9922 12.7031C24.9922 11.75 24.7891 10.9974 24.3828 10.4453C23.9766 9.89323 23.4193 9.61719 22.7109 9.61719C21.8359 9.61719 21.1797 10.0052 20.7422 10.7812V14.8203C21.1745 15.5911 21.8359 15.9766 22.7266 15.9766C23.4193 15.9766 23.9688 15.7031 24.375 15.1562C24.7865 14.6042 24.9922 13.7865 24.9922 12.7031ZM33.5 17C33.4167 16.8333 33.349 16.5365 33.2969 16.1094C32.625 16.8073 31.8229 17.1562 30.8906 17.1562C30.0573 17.1562 29.3724 16.9219 28.8359 16.4531C28.3047 15.9792 28.0391 15.3802 28.0391 14.6562C28.0391 13.776 28.3724 13.0938 29.0391 12.6094C29.7109 12.1198 30.6536 11.875 31.8672 11.875H33.2734V11.2109C33.2734 10.7057 33.1224 10.3047 32.8203 10.0078C32.5182 9.70573 32.0729 9.55469 31.4844 9.55469C30.9688 9.55469 30.5365 9.6849 30.1875 9.94531C29.8385 10.2057 29.6641 10.5208 29.6641 10.8906H28.2109C28.2109 10.4688 28.3594 10.0625 28.6562 9.67188C28.9583 9.27604 29.3646 8.96354 29.875 8.73438C30.3906 8.50521 30.9557 8.39062 31.5703 8.39062C32.5443 8.39062 33.3073 8.63542 33.8594 9.125C34.4115 9.60938 34.6979 10.2786 34.7188 11.1328V15.0234C34.7188 15.7995 34.8177 16.4167 35.0156 16.875V17H33.5ZM31.1016 15.8984C31.5547 15.8984 31.9844 15.7812 32.3906 15.5469C32.7969 15.3125 33.0911 15.0078 33.2734 14.6328V12.8984H32.1406C30.3698 12.8984 29.4844 13.4167 29.4844 14.4531C29.4844 14.9062 29.6354 15.2604 29.9375 15.5156C30.2396 15.7708 30.6276 15.8984 31.1016 15.8984ZM40.6953 9.03125C41.7578 9.03125 42.6068 9.38802 43.2422 10.1016C43.8828 10.8099 44.2031 11.7448 44.2031 12.9062V13.0391C44.2031 13.8359 44.0495 14.5495 43.7422 15.1797C43.4349 15.8047 42.9922 16.2917 42.4141 16.6406C41.8411 16.9844 41.1797 17.1562 40.4297 17.1562C39.2943 17.1562 38.3802 16.7786 37.6875 16.0234C36.9948 15.263 36.6484 14.2448 36.6484 12.9688V12.2656C36.6484 10.4896 36.9766 9.07812 37.6328 8.03125C38.2943 6.98438 39.2682 6.34635 40.5547 6.11719C41.2839 5.98698 41.776 5.82812 42.0312 5.64062C42.2865 5.45312 42.4141 5.19531 42.4141 4.86719H43.6016C43.6016 5.51823 43.4531 6.02604 43.1562 6.39062C42.8646 6.75521 42.3958 7.01302 41.75 7.16406L40.6719 7.40625C39.8125 7.60938 39.1667 7.95312 38.7344 8.4375C38.3073 8.91667 38.0286 9.55729 37.8984 10.3594C38.6641 9.47396 39.5964 9.03125 40.6953 9.03125ZM40.4141 10.2188C39.7057 10.2188 39.1432 10.4583 38.7266 10.9375C38.3099 11.4115 38.1016 12.0703 38.1016 12.9141V13.0391C38.1016 13.9453 38.3099 14.6641 38.7266 15.1953C39.1484 15.7214 39.7161 15.9844 40.4297 15.9844C41.1484 15.9844 41.7161 15.7188 42.1328 15.1875C42.5495 14.6562 42.7578 13.8802 42.7578 12.8594C42.7578 12.0625 42.5469 11.4245 42.125 10.9453C41.7083 10.4609 41.138 10.2188 40.4141 10.2188ZM45.4453 12.6953C45.4453 11.8672 45.6068 11.1224 45.9297 10.4609C46.2578 9.79948 46.7109 9.28906 47.2891 8.92969C47.8724 8.57031 48.5365 8.39062 49.2812 8.39062C50.4323 8.39062 51.362 8.78906 52.0703 9.58594C52.7839 10.3828 53.1406 11.4427 53.1406 12.7656V12.8672C53.1406 13.6901 52.9818 14.4297 52.6641 15.0859C52.3516 15.737 51.901 16.2448 51.3125 16.6094C50.7292 16.974 50.0573 17.1562 49.2969 17.1562C48.151 17.1562 47.2214 16.7578 46.5078 15.9609C45.7995 15.1641 45.4453 14.1094 45.4453 12.7969V12.6953ZM46.8984 12.8672C46.8984 13.8047 47.1146 14.5573 47.5469 15.125C47.9844 15.6927 48.5677 15.9766 49.2969 15.9766C50.0312 15.9766 50.6146 15.6901 51.0469 15.1172C51.4792 14.5391 51.6953 13.7318 51.6953 12.6953C51.6953 11.7682 51.474 11.0182 51.0312 10.4453C50.5938 9.86719 50.0104 9.57812 49.2812 9.57812C48.5677 9.57812 47.9922 9.86198 47.5547 10.4297C47.1172 10.9974 46.8984 11.8099 46.8984 12.8672ZM61.0625 9.71875H58.2266V17H56.7812V9.71875H54V8.54688H61.0625V9.71875ZM67.5625 17C67.4792 16.8333 67.4115 16.5365 67.3594 16.1094C66.6875 16.8073 65.8854 17.1562 64.9531 17.1562C64.1198 17.1562 63.4349 16.9219 62.8984 16.4531C62.3672 15.9792 62.1016 15.3802 62.1016 14.6562C62.1016 13.776 62.4349 13.0938 63.1016 12.6094C63.7734 12.1198 64.7161 11.875 65.9297 11.875H67.3359V11.2109C67.3359 10.7057 67.1849 10.3047 66.8828 10.0078C66.5807 9.70573 66.1354 9.55469 65.5469 9.55469C65.0312 9.55469 64.599 9.6849 64.25 9.94531C63.901 10.2057 63.7266 10.5208 63.7266 10.8906H62.2734C62.2734 10.4688 62.4219 10.0625 62.7188 9.67188C63.0208 9.27604 63.4271 8.96354 63.9375 8.73438C64.4531 8.50521 65.0182 8.39062 65.6328 8.39062C66.6068 8.39062 67.3698 8.63542 67.9219 9.125C68.474 9.60938 68.7604 10.2786 68.7812 11.1328V15.0234C68.7812 15.7995 68.8802 16.4167 69.0781 16.875V17H67.5625ZM65.1641 15.8984C65.6172 15.8984 66.0469 15.7812 66.4531 15.5469C66.8594 15.3125 67.1536 15.0078 67.3359 14.6328V12.8984H66.2031C64.4323 12.8984 63.5469 13.4167 63.5469 14.4531C63.5469 14.9062 63.6979 15.2604 64 15.5156C64.3021 15.7708 64.6901 15.8984 65.1641 15.8984ZM77.9531 17H76.5078V13.3906H72.625V17H71.1719V8.54688H72.625V12.2109H76.5078V8.54688H77.9531V17ZM79.8984 12.6953C79.8984 11.8672 80.0599 11.1224 80.3828 10.4609C80.7109 9.79948 81.1641 9.28906 81.7422 8.92969C82.3255 8.57031 82.9896 8.39062 83.7344 8.39062C84.8854 8.39062 85.8151 8.78906 86.5234 9.58594C87.237 10.3828 87.5938 11.4427 87.5938 12.7656V12.8672C87.5938 13.6901 87.4349 14.4297 87.1172 15.0859C86.8047 15.737 86.3542 16.2448 85.7656 16.6094C85.1823 16.974 84.5104 17.1562 83.75 17.1562C82.6042 17.1562 81.6745 16.7578 80.9609 15.9609C80.2526 15.1641 79.8984 14.1094 79.8984 12.7969V12.6953ZM81.3516 12.8672C81.3516 13.8047 81.5677 14.5573 82 15.125C82.4375 15.6927 83.0208 15.9766 83.75 15.9766C84.4844 15.9766 85.0677 15.6901 85.5 15.1172C85.9323 14.5391 86.1484 13.7318 86.1484 12.6953C86.1484 11.7682 85.9271 11.0182 85.4844 10.4453C85.0469 9.86719 84.4635 9.57812 83.7344 9.57812C83.0208 9.57812 82.4453 9.86198 82.0078 10.4297C81.5703 10.9974 81.3516 11.8099 81.3516 12.8672ZM96.1406 14.8828L98.1094 8.54688H99.6562L96.2578 18.3047C95.7318 19.7109 94.8958 20.4141 93.75 20.4141L93.4766 20.3906L92.9375 20.2891V19.1172L93.3281 19.1484C93.8177 19.1484 94.1979 19.0495 94.4688 18.8516C94.7448 18.6536 94.9714 18.2917 95.1484 17.7656L95.4688 16.9062L92.4531 8.54688H94.0312L96.1406 14.8828ZM107.336 17H105.883V13.9375C105.247 14.1042 104.596 14.1875 103.93 14.1875C102.872 14.1875 102.065 13.9167 101.508 13.375C100.956 12.8333 100.674 12.0625 100.664 11.0625V8.53906H102.109V11.1094C102.135 12.3698 102.742 13 103.93 13C104.596 13 105.247 12.9167 105.883 12.75V8.54688H107.336V17ZM113.164 17.1562C112.018 17.1562 111.086 16.7812 110.367 16.0312C109.648 15.276 109.289 14.2682 109.289 13.0078V12.7422C109.289 11.9036 109.448 11.1562 109.766 10.5C110.089 9.83854 110.536 9.32292 111.109 8.95312C111.688 8.57812 112.312 8.39062 112.984 8.39062C114.083 8.39062 114.938 8.7526 115.547 9.47656C116.156 10.2005 116.461 11.237 116.461 12.5859V13.1875H110.734C110.755 14.0208 110.997 14.6953 111.461 15.2109C111.93 15.7214 112.523 15.9766 113.242 15.9766C113.753 15.9766 114.185 15.8724 114.539 15.6641C114.893 15.4557 115.203 15.1797 115.469 14.8359L116.352 15.5234C115.643 16.612 114.581 17.1562 113.164 17.1562ZM112.984 9.57812C112.401 9.57812 111.911 9.79167 111.516 10.2188C111.12 10.6406 110.875 11.2344 110.781 12H115.016V11.8906C114.974 11.1562 114.776 10.5885 114.422 10.1875C114.068 9.78125 113.589 9.57812 112.984 9.57812ZM125.047 17H123.602V13.3906H119.719V17H118.266V8.54688H119.719V12.2109H123.602V8.54688H125.047V17ZM132.844 8.54688H134.289V17H132.844V10.8359L128.945 17H127.5V8.54688H128.945V14.7188L132.844 8.54688ZM139.242 13.3984H138.188V17H136.734V8.54688H138.188V12.125H139.133L141.977 8.54688H143.727L140.383 12.6094L144.008 17H142.172L139.242 13.3984ZM150.469 17C150.385 16.8333 150.318 16.5365 150.266 16.1094C149.594 16.8073 148.792 17.1562 147.859 17.1562C147.026 17.1562 146.341 16.9219 145.805 16.4531C145.273 15.9792 145.008 15.3802 145.008 14.6562C145.008 13.776 145.341 13.0938 146.008 12.6094C146.68 12.1198 147.622 11.875 148.836 11.875H150.242V11.2109C150.242 10.7057 150.091 10.3047 149.789 10.0078C149.487 9.70573 149.042 9.55469 148.453 9.55469C147.938 9.55469 147.505 9.6849 147.156 9.94531C146.807 10.2057 146.633 10.5208 146.633 10.8906H145.18C145.18 10.4688 145.328 10.0625 145.625 9.67188C145.927 9.27604 146.333 8.96354 146.844 8.73438C147.359 8.50521 147.924 8.39062 148.539 8.39062C149.513 8.39062 150.276 8.63542 150.828 9.125C151.38 9.60938 151.667 10.2786 151.688 11.1328V15.0234C151.688 15.7995 151.786 16.4167 151.984 16.875V17H150.469ZM148.07 15.8984C148.523 15.8984 148.953 15.7812 149.359 15.5469C149.766 15.3125 150.06 15.0078 150.242 14.6328V12.8984H149.109C147.339 12.8984 146.453 13.4167 146.453 14.4531C146.453 14.9062 146.604 15.2604 146.906 15.5156C147.208 15.7708 147.596 15.8984 148.07 15.8984ZM158.82 15.0859L161.695 8.54688H163.5V17H162.055V10.8516L159.32 17H158.32L155.531 10.7188V17H154.086V8.54688H155.961L158.82 15.0859ZM171.297 8.54688H172.742V17H171.297V10.8359L167.398 17H165.953V8.54688H167.398V14.7188L171.297 8.54688ZM175.016 16.2422C175.016 15.9922 175.089 15.7839 175.234 15.6172C175.385 15.4505 175.609 15.3672 175.906 15.3672C176.203 15.3672 176.427 15.4505 176.578 15.6172C176.734 15.7839 176.812 15.9922 176.812 16.2422C176.812 16.4818 176.734 16.6823 176.578 16.8438C176.427 17.0052 176.203 17.0859 175.906 17.0859C175.609 17.0859 175.385 17.0052 175.234 16.8438C175.089 16.6823 175.016 16.4818 175.016 16.2422ZM175.023 9.34375C175.023 9.09375 175.096 8.88542 175.242 8.71875C175.393 8.55208 175.617 8.46875 175.914 8.46875C176.211 8.46875 176.435 8.55208 176.586 8.71875C176.742 8.88542 176.82 9.09375 176.82 9.34375C176.82 9.58333 176.742 9.78385 176.586 9.94531C176.435 10.1068 176.211 10.1875 175.914 10.1875C175.617 10.1875 175.393 10.1068 175.242 9.94531C175.096 9.78385 175.023 9.58333 175.023 9.34375Z" fill="white"/>
<path opacity="0.4" d="M8.07812 55.1484C8.07812 56.8411 7.78906 58.099 7.21094 58.9219C6.63281 59.7448 5.72917 60.1562 4.5 60.1562C3.28646 60.1562 2.38802 59.7552 1.80469 58.9531C1.22135 58.1458 0.919271 56.9427 0.898438 55.3438V53.4141C0.898438 51.7422 1.1875 50.5 1.76562 49.6875C2.34375 48.875 3.25 48.4688 4.48438 48.4688C5.70833 48.4688 6.60938 48.862 7.1875 49.6484C7.76562 50.4297 8.0625 51.638 8.07812 53.2734V55.1484ZM6.63281 53.1719C6.63281 51.9479 6.46094 51.0573 6.11719 50.5C5.77344 49.9375 5.22917 49.6562 4.48438 49.6562C3.74479 49.6562 3.20573 49.9349 2.86719 50.4922C2.52865 51.0495 2.35417 51.9062 2.34375 53.0625V55.375C2.34375 56.6042 2.52083 57.513 2.875 58.1016C3.23438 58.6849 3.77604 58.9766 4.5 58.9766C5.21354 58.9766 5.74219 58.7005 6.08594 58.1484C6.4349 57.5964 6.61719 56.7266 6.63281 55.5391V53.1719Z" fill="white"/>
<path opacity="0.4" d="M638.242 60H636.789V50.3672L633.875 51.4375V50.125L638.016 48.5703H638.242V60ZM653.578 55.1484C653.578 56.8411 653.289 58.099 652.711 58.9219C652.133 59.7448 651.229 60.1562 650 60.1562C648.786 60.1562 647.888 59.7552 647.305 58.9531C646.721 58.1458 646.419 56.9427 646.398 55.3438V53.4141C646.398 51.7422 646.688 50.5 647.266 49.6875C647.844 48.875 648.75 48.4688 649.984 48.4688C651.208 48.4688 652.109 48.862 652.688 49.6484C653.266 50.4297 653.562 51.638 653.578 53.2734V55.1484ZM652.133 53.1719C652.133 51.9479 651.961 51.0573 651.617 50.5C651.273 49.9375 650.729 49.6562 649.984 49.6562C649.245 49.6562 648.706 49.9349 648.367 50.4922C648.029 51.0495 647.854 51.9062 647.844 53.0625V55.375C647.844 56.6042 648.021 57.513 648.375 58.1016C648.734 58.6849 649.276 58.9766 650 58.9766C650.714 58.9766 651.242 58.7005 651.586 58.1484C651.935 57.5964 652.117 56.7266 652.133 55.5391V53.1719ZM662.562 55.1484C662.562 56.8411 662.273 58.099 661.695 58.9219C661.117 59.7448 660.214 60.1562 658.984 60.1562C657.771 60.1562 656.872 59.7552 656.289 58.9531C655.706 58.1458 655.404 56.9427 655.383 55.3438V53.4141C655.383 51.7422 655.672 50.5 656.25 49.6875C656.828 48.875 657.734 48.4688 658.969 48.4688C660.193 48.4688 661.094 48.862 661.672 49.6484C662.25 50.4297 662.547 51.638 662.562 53.2734V55.1484ZM661.117 53.1719C661.117 51.9479 660.945 51.0573 660.602 50.5C660.258 49.9375 659.714 49.6562 658.969 49.6562C658.229 49.6562 657.69 49.9349 657.352 50.4922C657.013 51.0495 656.839 51.9062 656.828 53.0625V55.375C656.828 56.6042 657.005 57.513 657.359 58.1016C657.719 58.6849 658.26 58.9766 658.984 58.9766C659.698 58.9766 660.227 58.7005 660.57 58.1484C660.919 57.5964 661.102 56.7266 661.117 55.5391V53.1719ZM671.547 55.1484C671.547 56.8411 671.258 58.099 670.68 58.9219C670.102 59.7448 669.198 60.1562 667.969 60.1562C666.755 60.1562 665.857 59.7552 665.273 58.9531C664.69 58.1458 664.388 56.9427 664.367 55.3438V53.4141C664.367 51.7422 664.656 50.5 665.234 49.6875C665.812 48.875 666.719 48.4688 667.953 48.4688C669.177 48.4688 670.078 48.862 670.656 49.6484C671.234 50.4297 671.531 51.638 671.547 53.2734V55.1484ZM670.102 53.1719C670.102 51.9479 669.93 51.0573 669.586 50.5C669.242 49.9375 668.698 49.6562 667.953 49.6562C667.214 49.6562 666.674 49.9349 666.336 50.4922C665.997 51.0495 665.823 51.9062 665.812 53.0625V55.375C665.812 56.6042 665.99 57.513 666.344 58.1016C666.703 58.6849 667.245 58.9766 667.969 58.9766C668.682 58.9766 669.211 58.7005 669.555 58.1484C669.904 57.5964 670.086 56.7266 670.102 55.5391V53.1719ZM684.5 55.1484C684.5 56.8411 684.211 58.099 683.633 58.9219C683.055 59.7448 682.151 60.1562 680.922 60.1562C679.708 60.1562 678.81 59.7552 678.227 58.9531C677.643 58.1458 677.341 56.9427 677.32 55.3438V53.4141C677.32 51.7422 677.609 50.5 678.188 49.6875C678.766 48.875 679.672 48.4688 680.906 48.4688C682.13 48.4688 683.031 48.862 683.609 49.6484C684.188 50.4297 684.484 51.638 684.5 53.2734V55.1484ZM683.055 53.1719C683.055 51.9479 682.883 51.0573 682.539 50.5C682.195 49.9375 681.651 49.6562 680.906 49.6562C680.167 49.6562 679.628 49.9349 679.289 50.4922C678.951 51.0495 678.776 51.9062 678.766 53.0625V55.375C678.766 56.6042 678.943 57.513 679.297 58.1016C679.656 58.6849 680.198 58.9766 680.922 58.9766C681.635 58.9766 682.164 58.7005 682.508 58.1484C682.857 57.5964 683.039 56.7266 683.055 55.5391V53.1719ZM693.484 55.1484C693.484 56.8411 693.195 58.099 692.617 58.9219C692.039 59.7448 691.135 60.1562 689.906 60.1562C688.693 60.1562 687.794 59.7552 687.211 58.9531C686.628 58.1458 686.326 56.9427 686.305 55.3438V53.4141C686.305 51.7422 686.594 50.5 687.172 49.6875C687.75 48.875 688.656 48.4688 689.891 48.4688C691.115 48.4688 692.016 48.862 692.594 49.6484C693.172 50.4297 693.469 51.638 693.484 53.2734V55.1484ZM692.039 53.1719C692.039 51.9479 691.867 51.0573 691.523 50.5C691.18 49.9375 690.635 49.6562 689.891 49.6562C689.151 49.6562 688.612 49.9349 688.273 50.4922C687.935 51.0495 687.76 51.9062 687.75 53.0625V55.375C687.75 56.6042 687.927 57.513 688.281 58.1016C688.641 58.6849 689.182 58.9766 689.906 58.9766C690.62 58.9766 691.148 58.7005 691.492 58.1484C691.841 57.5964 692.023 56.7266 692.039 55.5391V53.1719ZM702.469 55.1484C702.469 56.8411 702.18 58.099 701.602 58.9219C701.023 59.7448 700.12 60.1562 698.891 60.1562C697.677 60.1562 696.779 59.7552 696.195 58.9531C695.612 58.1458 695.31 56.9427 695.289 55.3438V53.4141C695.289 51.7422 695.578 50.5 696.156 49.6875C696.734 48.875 697.641 48.4688 698.875 48.4688C700.099 48.4688 701 48.862 701.578 49.6484C702.156 50.4297 702.453 51.638 702.469 53.2734V55.1484ZM701.023 53.1719C701.023 51.9479 700.852 51.0573 700.508 50.5C700.164 49.9375 699.62 49.6562 698.875 49.6562C698.135 49.6562 697.596 49.9349 697.258 50.4922C696.919 51.0495 696.745 51.9062 696.734 53.0625V55.375C696.734 56.6042 696.911 57.513 697.266 58.1016C697.625 58.6849 698.167 58.9766 698.891 58.9766C699.604 58.9766 700.133 58.7005 700.477 58.1484C700.826 57.5964 701.008 56.7266 701.023 55.5391V53.1719ZM709.344 57.8516H706.727V60H705.234V57.8516H703.617V56.6172H705.234V55.5469H703.617V54.3203H705.234V48.625H709.43C710.648 48.625 711.615 48.9349 712.328 49.5547C713.042 50.1745 713.398 51.013 713.398 52.0703C713.398 53.1797 713.055 54.0365 712.367 54.6406C711.685 55.2396 710.714 55.5417 709.453 55.5469H706.727V56.6172H709.344V57.8516ZM706.727 54.3203H709.43C710.237 54.3203 710.852 54.1302 711.273 53.75C711.695 53.3698 711.906 52.8151 711.906 52.0859C711.906 51.4245 711.688 50.8906 711.25 50.4844C710.812 50.0729 710.221 49.8646 709.477 49.8594H706.727V54.3203Z" fill="white"/>
<path d="M215.453 13.7188H216.742V15.5391H215.453V18H213.195V15.5391H208.531L208.43 14.1172L213.172 6.625H215.453V13.7188ZM210.68 13.7188H213.195V9.70312L213.047 9.96094L210.68 13.7188ZM225.617 13.2969C225.617 14.8698 225.292 16.0729 224.641 16.9062C223.99 17.7396 223.036 18.1562 221.781 18.1562C220.542 18.1562 219.594 17.7474 218.938 16.9297C218.281 16.112 217.945 14.9401 217.93 13.4141V11.3203C217.93 9.73177 218.258 8.52604 218.914 7.70312C219.576 6.88021 220.526 6.46875 221.766 6.46875C223.005 6.46875 223.953 6.8776 224.609 7.69531C225.266 8.50781 225.602 9.67708 225.617 11.2031V13.2969ZM223.359 11C223.359 10.0573 223.229 9.3724 222.969 8.94531C222.714 8.51302 222.312 8.29688 221.766 8.29688C221.234 8.29688 220.841 8.5026 220.586 8.91406C220.336 9.32031 220.203 9.95833 220.188 10.8281V13.5938C220.188 14.5208 220.312 15.2109 220.562 15.6641C220.818 16.112 221.224 16.3359 221.781 16.3359C222.333 16.3359 222.732 16.1198 222.977 15.6875C223.221 15.2552 223.349 14.5938 223.359 13.7031V11ZM234.805 13.2969C234.805 14.8698 234.479 16.0729 233.828 16.9062C233.177 17.7396 232.224 18.1562 230.969 18.1562C229.729 18.1562 228.781 17.7474 228.125 16.9297C227.469 16.112 227.133 14.9401 227.117 13.4141V11.3203C227.117 9.73177 227.445 8.52604 228.102 7.70312C228.763 6.88021 229.714 6.46875 230.953 6.46875C232.193 6.46875 233.141 6.8776 233.797 7.69531C234.453 8.50781 234.789 9.67708 234.805 11.2031V13.2969ZM232.547 11C232.547 10.0573 232.417 9.3724 232.156 8.94531C231.901 8.51302 231.5 8.29688 230.953 8.29688C230.422 8.29688 230.029 8.5026 229.773 8.91406C229.523 9.32031 229.391 9.95833 229.375 10.8281V13.5938C229.375 14.5208 229.5 15.2109 229.75 15.6641C230.005 16.112 230.411 16.3359 230.969 16.3359C231.521 16.3359 231.919 16.1198 232.164 15.6875C232.409 15.2552 232.536 14.5938 232.547 13.7031V11ZM247.977 13.2969C247.977 14.8698 247.651 16.0729 247 16.9062C246.349 17.7396 245.396 18.1562 244.141 18.1562C242.901 18.1562 241.953 17.7474 241.297 16.9297C240.641 16.112 240.305 14.9401 240.289 13.4141V11.3203C240.289 9.73177 240.617 8.52604 241.273 7.70312C241.935 6.88021 242.885 6.46875 244.125 6.46875C245.365 6.46875 246.312 6.8776 246.969 7.69531C247.625 8.50781 247.961 9.67708 247.977 11.2031V13.2969ZM245.719 11C245.719 10.0573 245.589 9.3724 245.328 8.94531C245.073 8.51302 244.672 8.29688 244.125 8.29688C243.594 8.29688 243.201 8.5026 242.945 8.91406C242.695 9.32031 242.562 9.95833 242.547 10.8281V13.5938C242.547 14.5208 242.672 15.2109 242.922 15.6641C243.177 16.112 243.583 16.3359 244.141 16.3359C244.693 16.3359 245.091 16.1198 245.336 15.6875C245.581 15.2552 245.708 14.5938 245.719 13.7031V11ZM257.164 13.2969C257.164 14.8698 256.839 16.0729 256.188 16.9062C255.536 17.7396 254.583 18.1562 253.328 18.1562C252.089 18.1562 251.141 17.7474 250.484 16.9297C249.828 16.112 249.492 14.9401 249.477 13.4141V11.3203C249.477 9.73177 249.805 8.52604 250.461 7.70312C251.122 6.88021 252.073 6.46875 253.312 6.46875C254.552 6.46875 255.5 6.8776 256.156 7.69531C256.812 8.50781 257.148 9.67708 257.164 11.2031V13.2969ZM254.906 11C254.906 10.0573 254.776 9.3724 254.516 8.94531C254.26 8.51302 253.859 8.29688 253.312 8.29688C252.781 8.29688 252.388 8.5026 252.133 8.91406C251.883 9.32031 251.75 9.95833 251.734 10.8281V13.5938C251.734 14.5208 251.859 15.2109 252.109 15.6641C252.365 16.112 252.771 16.3359 253.328 16.3359C253.88 16.3359 254.279 16.1198 254.523 15.6875C254.768 15.2552 254.896 14.5938 254.906 13.7031V11ZM266.352 13.2969C266.352 14.8698 266.026 16.0729 265.375 16.9062C264.724 17.7396 263.771 18.1562 262.516 18.1562C261.276 18.1562 260.328 17.7474 259.672 16.9297C259.016 16.112 258.68 14.9401 258.664 13.4141V11.3203C258.664 9.73177 258.992 8.52604 259.648 7.70312C260.31 6.88021 261.26 6.46875 262.5 6.46875C263.74 6.46875 264.688 6.8776 265.344 7.69531C266 8.50781 266.336 9.67708 266.352 11.2031V13.2969ZM264.094 11C264.094 10.0573 263.964 9.3724 263.703 8.94531C263.448 8.51302 263.047 8.29688 262.5 8.29688C261.969 8.29688 261.576 8.5026 261.32 8.91406C261.07 9.32031 260.938 9.95833 260.922 10.8281V13.5938C260.922 14.5208 261.047 15.2109 261.297 15.6641C261.552 16.112 261.958 16.3359 262.516 16.3359C263.068 16.3359 263.466 16.1198 263.711 15.6875C263.956 15.2552 264.083 14.5938 264.094 13.7031V11ZM273.922 16.4844H271.438V18H269.094V16.4844H267.508V14.5859H269.094V13.9922H267.508V12.0938H269.094V6.625H273.516C274.37 6.625 275.12 6.77865 275.766 7.08594C276.411 7.39323 276.911 7.83333 277.266 8.40625C277.625 8.97396 277.805 9.6224 277.805 10.3516C277.805 11.4766 277.422 12.3646 276.656 13.0156C275.896 13.6667 274.836 13.9922 273.477 13.9922H271.438V14.5859H273.922V16.4844ZM271.438 12.0938H273.461C274.773 12.0938 275.43 11.5182 275.43 10.3672C275.43 9.82031 275.263 9.38021 274.93 9.04688C274.596 8.70833 274.135 8.53646 273.547 8.53125H271.438V12.0938Z" fill="white"/>
<rect y="32" width="714" height="6" fill="white"/>
<rect y="32" width="440" height="6" fill="url(#paint0_linear)"/>
<defs>
<linearGradient id="paint0_linear" x1="53.3728" y1="32" x2="63.5663" y2="94.5061" gradientUnits="userSpaceOnUse">
<stop stop-color="#DF5950"/>
<stop offset="1" stop-color="#451046"/>
</linearGradient>
</defs>
</svg>
